# File created by Blade
# Date/Time:  Thu Jan 22 15:49:58 2015
# Frame Rate: 120.000 fps
#------------------------------------------------------
:FULLY-SPECIFIED
:DEGREES
754
root 3.073074 37.096118 4.800741 -1.694250 -0.997015 3.086000
RightUpLeg 10.176155 -7.075698 -5.683930
RightLeg -5.594409 -0.000000 0.000000
RightFoot -12.152748 -13.909899 16.724720
RightToeBase 14.676559 -0.000000 -0.000000
LeftUpLeg 7.895149 4.590090 1.314718
LeftLeg -2.636846 -0.000000 0.000000
LeftFoot -6.451078 6.956708 -16.979642
LeftToeBase 8.599030 -0.000000 -0.000000
Spine 3.179435 -5.912834 -2.323551
RightShoulder -7.237816 -11.466121 -24.432073
RightArm 8.950798 47.535696 50.679270
RightForeArm 15.524667 -0.000000 8.899730
RightHand 0.455777 -0.000000 6.035573
RightHandThumb1 -24.326973 -0.000000 -32.862282
LeftShoulder -25.944461 30.209274 10.884067
LeftArm 54.926772 -57.702293 -80.532431
LeftForeArm 28.007057 -0.000000 0.287708
LeftHand -25.635476 0.000000 -0.969977
LeftHandThumb1 -26.253704 0.000000 33.147579
Head 10.264236 18.280058 -6.313839
755
root 3.067379 37.091850 4.813103 -1.711189 -1.072886 3.069712
RightUpLeg 10.200495 -7.037842 -5.665685
RightLeg -5.597229 -0.000000 0.000000
RightFoot -12.151510 -13.854054 16.660389
RightToeBase 14.652964 -0.000000 -0.000000
LeftUpLeg 7.957779 4.641621 1.344338
LeftLeg -2.662769 -0.000000 0.000000
LeftFoot -6.501934 6.960847 -17.013779
LeftToeBase 8.587915 -0.000000 -0.000000
Spine 3.118080 -5.879733 -2.335514
RightShoulder -7.251291 -11.549637 -24.329839
RightArm 9.097041 47.703203 51.090643
RightForeArm 15.918742 -0.000000 8.799530
RightHand 0.257064 -0.000000 5.721584
RightHandThumb1 -24.326973 -0.000000 -32.862282
LeftShoulder -26.018422 30.291913 10.752392
LeftArm 54.923643 -57.673856 -80.692756
LeftForeArm 27.928576 -0.000000 0.082079
LeftHand -25.691832 0.000000 -0.606393
LeftHandThumb1 -26.253704 0.000000 33.147579
Head 10.416897 18.315879 -6.320739
756
root 3.061032 37.089020 4.824611 -1.725789 -1.128589 3.044546
RightUpLeg 10.220882 -6.999088 -5.639744
RightLeg -5.586290 -0.000000 0.000000
RightFoot -12.161684 -13.795341 16.659011
RightToeBase 14.629912 -0.000000 -0.000000
LeftUpLeg 8.006197 4.673737 1.381353
LeftLeg -2.675766 -0.000000 0.000000
LeftFoot -6.540060 6.976379 -17.000378
LeftToeBase 8.603563 -0.000000 -0.000000
Spine 3.046607 -5.865153 -2.341011
RightShoulder -7.258604 -11.587228 -24.251863
RightArm 9.218707 47.790105 51.400956
RightForeArm 16.109439 -0.000000 8.718023
RightHand 0.060467 0.000000 5.265163
RightHandThumb1 -24.326973 -0.000000 -32.862282
LeftShoulder -26.057401 30.347334 10.665993
LeftArm 55.122527 -57.774320 -81.059957
LeftForeArm 27.882436 -0.000000 -0.114552
LeftHand -25.991250 -0.000000 -0.374691
LeftHandThumb1 -26.253704 0.000000 33.147579
Head 10.599305 18.279308 -6.388976
757
root 3.055974 37.087217 4.836363 -1.740689 -1.177145 3.006052
RightUpLeg 10.237291 -7.002829 -5.605964
RightLeg -5.564433 -0.000000 0.000000
RightFoot -12.156766 -13.727377 16.636721
RightToeBase 14.581688 -0.000000 -0.000000
LeftUpLeg 8.046650 4.688333 1.426557
LeftLeg -2.673278 -0.000000 0.000000
LeftFoot -6.588606 7.005019 -16.997266
LeftToeBase 8.549491 -0.000000 -0.000000
Spine 2.962397 -5.861933 -2.310813
RightShoulder -7.261388 -11.585035 -24.183350
RightArm 9.277147 47.781185 51.546636
RightForeArm 16.179897 0.000000 8.745054
RightHand -0.200821 -0.000000 5.021520
RightHandThumb1 -24.326973 -0.000000 -32.862282
LeftShoulder -26.064375 30.367003 10.583308
LeftArm 55.224450 -57.892160 -81.268573
LeftForeArm 27.837230 -0.000000 -0.298170
LeftHand -26.084016 0.000000 -0.160561
LeftHandThumb1 -26.253704 0.000000 33.147579
Head 10.819498 18.353640 -6.374635
758
root 3.048432 37.085076 4.850186 -1.785955 -1.224069 2.972672
RightUpLeg 10.291583 -6.975718 -5.572783
RightLeg -5.551743 -0.000000 0.000000
RightFoot -12.163044 -13.689148 16.628920
RightToeBase 14.612545 -0.000000 -0.000000
LeftUpLeg 8.122190 4.658327 1.468576
LeftLeg -2.673680 -0.000000 0.000000
LeftFoot -6.636547 7.070351 -16.987064
LeftToeBase 8.486904 -0.000000 -0.000000
Spine 2.907391 -5.867767 -2.320149
RightShoulder -7.243800 -11.511642 -24.106084
RightArm 9.288878 47.765755 51.568825
RightForeArm 16.189746 -0.000000 8.770307
RightHand -0.271999 -0.000000 4.836185
RightHandThumb1 -24.326973 -0.000000 -32.862282
LeftShoulder -26.048282 30.299456 10.613643
LeftArm 55.296895 -58.044233 -81.449567
LeftForeArm 27.791305 -0.000000 -0.482737
LeftHand -26.306446 -0.000000 0.074620
LeftHandThumb1 -26.253704 0.000000 33.147579
Head 11.061331 18.320310 -6.398225
